<?xml version="1.0" encoding="UTF-8" standalone="no" ?>
<!DOCTYPE svg PUBLIC "-//W3C//DTD SVG 1.1//EN" "http://www.w3.org/Graphics/SVG/1.1/DTD/svg11.dtd">
<svg xmlns="http://www.w3.org/2000/svg" xmlns:xlink="http://www.w3.org/1999/xlink" version="1.1" width="230" height="50" viewBox="0 0 230 50" xml:space="preserve">
<desc>Created with Fabric.js 4.6.0</desc>
<defs>
</defs>
<g transform="matrix(0.99 0 0 0.99 109.12 25.03)" id="BgU0puSOqL2bv8gUpM_tM"  >
<g style="" vector-effect="non-scaling-stroke"   >
		<g transform="matrix(1 0 0 1 0 0)" id="D7X2lSyIJVWWjKx1geoEr"  >
<path style="stroke: none; stroke-width: 1; stroke-dasharray: none; stroke-linecap: butt; stroke-dashoffset: 0; stroke-linejoin: miter; stroke-miterlimit: 4; fill: rgb(255,255,255); fill-opacity: 0; fill-rule: nonzero; opacity: 1;" vector-effect="non-scaling-stroke"  transform=" translate(-150, -150)" d="M 0 300 L 0 0 L 300 0 L 300 300 z" stroke-linecap="round" />
</g>
		<g transform="matrix(1.81 0 0 1.81 35.92 -10)" id="dr2xB9Aizdv_dSkEL9GAb"  >
<path style="stroke: none; stroke-width: 1; stroke-dasharray: none; stroke-linecap: butt; stroke-dashoffset: 0; stroke-linejoin: miter; stroke-miterlimit: 4; fill: rgb(0,0,0); fill-rule: nonzero; opacity: 1;" vector-effect="non-scaling-stroke"  transform=" translate(-41.74, -9.34)" d="M 1.54 14.59 L 1.54 14.59 L 1.54 14.59 Q 1.41 14.25 1.41 13.65 L 1.41 13.65 L 1.41 13.65 Q 1.41 13.05 1.82 10.09 L 1.82 10.09 L 1.82 10.09 Q 2.23 7.14 2.23 5.35 L 2.23 5.35 L 2.23 5.35 Q 2.23 4.93 2.17 4.2 L 2.17 4.2 L 2.17 4.2 Q 3.23 4.26 3.5 4.7 L 3.5 4.7 L 3.5 4.7 Q 3.64 4.96 3.68 5.19 L 3.68 5.19 L 3.68 5.19 Q 3.72 5.42 3.72 5.92 L 3.72 5.92 L 3.72 5.92 Q 3.72 6.41 3.27 9.65 L 3.27 9.65 L 3.27 9.65 Q 2.81 12.89 2.8 14.27 L 2.8 14.27 L 2.8 14.27 Q 2.87 14.25 3.05 14.25 L 3.05 14.25 L 3.05 14.25 Q 6.08 14.25 7.56 13.83 L 7.56 13.83 L 7.56 13.83 Q 7.46 14.64 7.01 15.09 L 7.01 15.09 L 7.01 15.09 Q 6.55 15.54 5.87 15.54 L 5.87 15.54 L 5.87 15.54 Q 5.67 15.54 4.66 15.45 L 4.66 15.45 L 4.66 15.45 Q 3.64 15.36 2.69 15.36 L 2.69 15.36 L 2.69 15.36 Q 1.74 15.36 0.78 15.54 L 0.78 15.54 L 0.78 15.54 Q 0.97 14.92 1.54 14.59 Z M 10.75 9.95 L 10.75 9.95 L 10.75 9.95 Q 10.35 10.65 10.13 11.39 L 10.13 11.39 L 10.13 11.39 Q 9.91 12.12 9.91 12.8 L 9.91 12.8 L 9.91 12.8 Q 9.91 13.47 10.21 13.94 L 10.21 13.94 L 10.21 13.94 Q 10.51 14.41 11.07 14.41 L 11.07 14.41 L 11.07 14.41 Q 11.86 14.41 12.54 13.55 L 12.54 13.55 L 12.54 13.55 Q 13.23 12.68 13.6 11.46 L 13.6 11.46 L 13.6 11.46 Q 13.97 10.23 13.97 9.19 L 13.97 9.19 L 13.97 9.19 Q 13.97 8.15 13.89 7.48 L 13.89 7.48 L 13.89 7.48 Q 14.22 7.45 14.31 7.45 L 14.31 7.45 L 14.31 7.45 Q 15.5 7.45 15.5 8.67 L 15.5 8.67 L 15.5 8.67 Q 15.5 8.93 15.16 10.83 L 15.16 10.83 L 15.16 10.83 Q 14.83 12.73 14.83 13.87 L 14.83 13.87 L 14.83 13.87 Q 14.83 15.01 15.26 15.89 L 15.26 15.89 L 15.26 15.89 Q 14.38 15.71 13.98 15.11 L 13.98 15.11 L 13.98 15.11 Q 13.58 14.52 13.58 13.4 L 13.58 13.4 L 13.58 13.4 Q 13.58 13.2 13.64 12.64 L 13.64 12.64 L 13.64 12.64 Q 13.26 13.97 12.31 14.78 L 12.31 14.78 L 12.31 14.78 Q 11.35 15.6 10.44 15.6 L 10.44 15.6 L 10.44 15.6 Q 9.52 15.6 8.96 14.9 L 8.96 14.9 L 8.96 14.9 Q 8.4 14.21 8.4 12.99 L 8.4 12.99 L 8.4 12.99 Q 8.4 11.76 8.86 10.59 L 8.86 10.59 L 8.86 10.59 Q 9.31 9.42 10.23 8.57 L 10.23 8.57 L 10.23 8.57 Q 11.14 7.71 12.28 7.71 L 12.28 7.71 L 12.28 7.71 Q 12.77 7.71 13.36 7.91 L 13.36 7.91 L 13.36 7.91 Q 12.53 8.12 11.84 8.68 L 11.84 8.68 L 11.84 8.68 Q 11.16 9.24 10.75 9.95 Z M 24.84 5.7 L 24.84 5.7 L 24.85 5.87 L 24.85 5.87 Q 24.85 6.4 24.45 9.35 L 24.45 9.35 L 24.45 9.35 Q 24.05 12.29 24.05 14.27 L 24.05 14.27 L 24.05 14.27 Q 24.05 15.15 24.14 15.64 L 24.14 15.64 L 24.14 15.64 Q 23.8 15.67 23.77 15.67 L 23.77 15.67 L 23.77 15.67 Q 23.14 15.67 22.83 15.38 L 22.83 15.38 L 22.83 15.38 Q 22.53 15.09 22.53 14.44 L 22.53 14.44 L 22.53 14.44 Q 22.53 13.79 23 10.46 L 23 10.46 L 23 10.46 Q 23.46 7.14 23.46 5.72 L 23.46 5.72 L 23.46 5.72 Q 23.46 4.3 23.27 3.86 L 23.27 3.86 L 23.27 3.86 Q 23.72 3.92 24.1 4.21 L 24.1 4.21 L 24.1 4.21 Q 24.49 4.49 24.68 4.97 L 24.68 4.97 L 24.68 4.97 Q 25.75 4.4 27.06 4.4 L 27.06 4.4 L 27.06 4.4 Q 28.36 4.4 29.11 5.2 L 29.11 5.2 L 29.11 5.2 Q 29.86 6.01 29.86 7.18 L 29.86 7.18 L 29.86 7.18 Q 29.86 8.68 28.77 9.88 L 28.77 9.88 L 28.77 9.88 Q 27.68 11.07 25.83 11.07 L 25.83 11.07 L 25.83 11.07 Q 25.41 11.07 25.06 11.02 L 25.06 11.02 L 25.02 10.57 L 25.02 10.57 Q 25.96 10.57 26.66 10.29 L 26.66 10.29 L 26.66 10.29 Q 27.36 10.01 27.72 9.55 L 27.72 9.55 L 27.72 9.55 Q 28.43 8.65 28.43 7.45 L 28.43 7.45 L 28.43 7.45 Q 28.43 6.58 27.88 6 L 27.88 6 L 27.88 6 Q 27.33 5.42 26.28 5.42 L 26.28 5.42 L 26.28 5.42 Q 25.65 5.42 24.84 5.7 Z M 32.96 9.95 L 32.96 9.95 L 32.96 9.95 Q 32.55 10.65 32.33 11.39 L 32.33 11.39 L 32.33 11.39 Q 32.12 12.12 32.12 12.8 L 32.12 12.8 L 32.12 12.8 Q 32.12 13.47 32.42 13.94 L 32.42 13.94 L 32.42 13.94 Q 32.72 14.41 33.28 14.41 L 33.28 14.41 L 33.28 14.41 Q 34.06 14.41 34.75 13.55 L 34.75 13.55 L 34.75 13.55 Q 35.43 12.68 35.8 11.46 L 35.8 11.46 L 35.8 11.46 Q 36.18 10.23 36.18 9.19 L 36.18 9.19 L 36.18 9.19 Q 36.18 8.15 36.09 7.48 L 36.09 7.48 L 36.09 7.48 Q 36.43 7.45 36.51 7.45 L 36.51 7.45 L 36.51 7.45 Q 37.7 7.45 37.7 8.67 L 37.7 8.67 L 37.7 8.67 Q 37.7 8.93 37.37 10.83 L 37.37 10.83 L 37.37 10.83 Q 37.03 12.73 37.03 13.87 L 37.03 13.87 L 37.03 13.87 Q 37.03 15.01 37.46 15.89 L 37.46 15.89 L 37.46 15.89 Q 36.58 15.71 36.18 15.11 L 36.18 15.11 L 36.18 15.11 Q 35.78 14.52 35.78 13.4 L 35.78 13.4 L 35.78 13.4 Q 35.78 13.2 35.84 12.64 L 35.84 12.64 L 35.84 12.64 Q 35.46 13.97 34.51 14.78 L 34.51 14.78 L 34.51 14.78 Q 33.56 15.6 32.64 15.6 L 32.64 15.6 L 32.64 15.6 Q 31.72 15.6 31.16 14.9 L 31.16 14.9 L 31.16 14.9 Q 30.6 14.21 30.6 12.99 L 30.6 12.99 L 30.6 12.99 Q 30.6 11.76 31.06 10.59 L 31.06 10.59 L 31.06 10.59 Q 31.51 9.42 32.43 8.57 L 32.43 8.57 L 32.43 8.57 Q 33.35 7.71 34.48 7.71 L 34.48 7.71 L 34.48 7.71 Q 34.97 7.71 35.56 7.91 L 35.56 7.91 L 35.56 7.91 Q 34.73 8.12 34.05 8.68 L 34.05 8.68 L 34.05 8.68 Q 33.36 9.24 32.96 9.95 Z M 46.35 9.34 L 46.35 9.34 L 46.35 9.34 Q 46.35 9.98 46.08 11.61 L 46.08 11.61 L 46.08 11.61 Q 45.81 13.24 45.81 13.99 L 45.81 13.99 L 45.81 13.99 Q 45.81 14.73 45.99 15.06 L 45.99 15.06 L 45.99 15.06 Q 46.17 15.39 46.61 15.62 L 46.61 15.62 L 46.61 15.62 Q 46.42 15.64 46.09 15.64 L 46.09 15.64 L 46.09 15.64 Q 45.14 15.64 44.74 15.28 L 44.74 15.28 L 44.74 15.28 Q 44.34 14.92 44.34 14 L 44.34 14 L 44.34 14 Q 44.34 13.48 44.62 11.91 L 44.62 11.91 L 44.62 11.91 Q 44.9 10.33 44.9 9.59 L 44.9 9.59 L 44.9 9.59 Q 44.9 8.67 44.34 8.67 L 44.34 8.67 L 44.34 8.67 Q 43.44 8.67 42.48 10.25 L 42.48 10.25 L 42.48 10.25 Q 41.52 11.83 41.52 14.06 L 41.52 14.06 L 41.52 14.06 Q 41.52 14.94 41.61 15.43 L 41.61 15.43 L 41.61 15.43 Q 41.24 15.46 41.17 15.46 L 41.17 15.46 L 41.17 15.46 Q 39.94 15.46 39.94 14.25 L 39.94 14.25 L 39.94 14.25 Q 39.94 13.97 40.24 12.1 L 40.24 12.1 L 40.24 12.1 Q 40.53 10.22 40.53 9.11 L 40.53 9.11 L 40.53 9.11 Q 40.53 7.99 40.29 7.06 L 40.29 7.06 L 40.29 7.06 Q 41.12 7.38 41.45 7.97 L 41.45 7.97 L 41.45 7.97 Q 41.78 8.57 41.78 9.33 L 41.78 9.33 L 41.78 9.33 Q 41.78 10.09 41.61 11.1 L 41.61 11.1 L 41.61 11.1 Q 42.07 9.52 43.06 8.44 L 43.06 8.44 L 43.06 8.44 Q 44.04 7.35 44.9 7.35 L 44.9 7.35 L 44.9 7.35 Q 46.35 7.35 46.35 9.34 Z M 53.06 7.76 L 53.06 7.76 L 53.06 7.76 Q 53.06 8.34 52.84 8.57 L 52.84 8.57 L 52.84 8.57 Q 52.61 8.79 52.18 8.79 L 52.18 8.79 L 51.17 8.79 L 51.17 8.79 Q 51.11 9.16 50.88 10.53 L 50.88 10.53 L 50.88 10.53 Q 50.4 13.13 50.4 14.46 L 50.4 14.46 L 50.4 14.46 Q 50.4 15.79 50.6 16.23 L 50.6 16.23 L 50.6 16.23 Q 49.8 15.93 49.46 15.34 L 49.46 15.34 L 49.46 15.34 Q 49.13 14.74 49.13 13.89 L 49.13 13.89 L 49.13 13.89 Q 49.13 13.03 49.23 12.27 L 49.23 12.27 L 49.23 12.27 Q 49.34 11.51 49.53 10.49 L 49.53 10.49 L 49.53 10.49 Q 49.73 9.46 49.81 8.85 L 49.81 8.85 L 49.81 8.85 Q 49.01 8.96 48.24 9.3 L 48.24 9.3 L 48.24 9.3 Q 48.22 9.07 48.22 8.89 L 48.22 8.89 L 48.22 8.89 Q 48.22 8.22 48.66 7.99 L 48.66 7.99 L 48.66 7.99 Q 49.11 7.76 49.95 7.76 L 49.95 7.76 L 49.95 7.76 Q 50.05 6.72 50.05 6.21 L 50.05 6.21 L 50.05 6.21 Q 50.05 5.7 50.04 5.39 L 50.04 5.39 L 50.04 5.39 Q 50.04 5.08 50.04 4.93 L 50.04 4.93 L 50.04 4.93 Q 50.68 5.03 51.03 5.5 L 51.03 5.5 L 51.03 5.5 Q 51.38 5.96 51.38 6.78 L 51.38 6.78 L 51.38 6.78 Q 51.38 7.2 51.31 7.8 L 51.31 7.8 L 51.31 7.8 Q 52.53 7.8 53.03 7.39 L 53.03 7.39 L 53.03 7.39 Q 53.06 7.59 53.06 7.76 Z M 55.69 11.1 L 55.69 11.1 Q 56.15 9.52 57.11 8.44 L 57.11 8.44 L 57.11 8.44 Q 58.07 7.35 58.91 7.35 L 58.91 7.35 L 58.91 7.35 Q 59.75 7.35 60.1 7.86 L 60.1 7.86 L 60.1 7.86 Q 60.45 8.37 60.45 9.25 L 60.45 9.25 L 60.45 9.25 Q 60.45 10.12 60.18 11.7 L 60.18 11.7 L 60.18 11.7 Q 59.91 13.29 59.91 14.01 L 59.91 14.01 L 59.91 14.01 Q 59.91 14.73 60.09 15.06 L 60.09 15.06 L 60.09 15.06 Q 60.27 15.39 60.7 15.62 L 60.7 15.62 L 60.7 15.62 Q 60.52 15.64 60.19 15.64 L 60.19 15.64 L 60.19 15.64 Q 59.29 15.64 58.86 15.27 L 58.86 15.27 L 58.86 15.27 Q 58.44 14.9 58.44 14 L 58.44 14 L 58.44 14 Q 58.44 13.48 58.72 11.91 L 58.72 11.91 L 58.72 11.91 Q 59 10.33 59 9.59 L 59 9.59 L 59 9.59 Q 59 8.67 58.35 8.67 L 58.35 8.67 L 58.35 8.67 Q 57.97 8.67 57.51 9.07 L 57.51 9.07 L 57.51 9.07 Q 57.05 9.46 56.62 10.14 L 56.62 10.14 L 56.62 10.14 Q 56.2 10.82 55.91 11.87 L 55.91 11.87 L 55.91 11.87 Q 55.62 12.91 55.62 13.92 L 55.62 13.92 L 55.62 13.92 Q 55.62 14.94 55.71 15.43 L 55.71 15.43 L 55.71 15.43 Q 55.37 15.46 55.33 15.46 L 55.33 15.46 L 55.33 15.46 Q 54.67 15.46 54.36 15.18 L 54.36 15.18 L 54.36 15.18 Q 54.04 14.9 54.04 14.3 L 54.04 14.3 L 54.04 14.3 Q 54.04 13.71 54.29 12.01 L 54.29 12.01 L 54.29 12.01 Q 55.03 6.8 55.03 4.1 L 55.03 4.1 L 55.03 4.1 Q 55.03 2.88 54.87 2.46 L 54.87 2.46 L 54.87 2.46 Q 55.68 2.76 56.01 3.33 L 56.01 3.33 L 56.01 3.33 Q 56.34 3.91 56.34 4.91 L 56.34 4.91 L 56.34 4.91 Q 56.34 5.61 56.06 7.85 L 56.06 7.85 L 56.06 7.85 Q 55.79 10.09 55.69 11.1 L 55.69 11.1 Z M 66.28 8.08 L 66.28 8.08 L 66.28 8.08 Q 65.44 8.08 64.86 9.04 L 64.86 9.04 L 64.86 9.04 Q 64.27 10.01 64.08 11.31 L 64.08 11.31 L 64.47 11.31 L 64.47 11.31 Q 65.21 11.31 65.76 11.1 L 65.76 11.1 L 65.76 11.1 Q 66.3 10.89 66.6 10.56 L 66.6 10.56 L 66.6 10.56 Q 67.16 9.91 67.16 9.1 L 67.16 9.1 L 67.16 9.1 Q 67.16 8.64 66.94 8.36 L 66.94 8.36 L 66.94 8.36 Q 66.72 8.08 66.28 8.08 Z M 68.25 13.75 L 68.25 13.75 Q 67.61 14.8 66.84 15.22 L 66.84 15.22 L 66.84 15.22 Q 66.07 15.64 65.05 15.64 L 65.05 15.64 L 65.05 15.64 Q 64.04 15.64 63.28 14.74 L 63.28 14.74 L 63.28 14.74 Q 62.52 13.85 62.52 12.22 L 62.52 12.22 L 62.52 12.22 Q 62.52 10.37 63.52 8.92 L 63.52 8.92 L 63.52 8.92 Q 64.01 8.22 64.8 7.78 L 64.8 7.78 L 64.8 7.78 Q 65.59 7.35 66.54 7.35 L 66.54 7.35 L 66.54 7.35 Q 68.64 7.35 68.64 9.38 L 68.64 9.38 L 68.64 9.38 Q 68.64 10.6 67.7 11.29 L 67.7 11.29 L 67.7 11.29 Q 66.75 11.98 65.51 11.98 L 65.51 11.98 L 65.51 11.98 Q 64.68 11.98 64.02 11.83 L 64.02 11.83 L 64.02 11.83 Q 64.01 11.97 64.01 12.26 L 64.01 12.26 L 64.01 12.26 Q 64.01 14.74 65.48 14.74 L 65.48 14.74 L 65.48 14.74 Q 66.86 14.74 67.73 13.37 L 67.73 13.37 L 67.73 13.37 Q 68.25 13.44 68.25 13.75 L 68.25 13.75 Z M 67.97 6.3 L 67.97 6.3 L 67.97 6.3 Q 67.96 6.45 67.82 6.59 L 67.82 6.59 L 67.82 6.59 Q 67.69 6.72 67.52 6.76 L 67.52 6.76 L 67.52 6.76 Q 67.02 6.13 66.23 5.52 L 66.23 5.52 L 66.23 5.52 Q 65.44 4.9 64.62 4.65 L 64.62 4.65 L 64.62 4.65 Q 64.65 3.92 65.3 3.5 L 65.3 3.5 L 65.3 3.5 Q 66.04 3.79 66.83 4.66 L 66.83 4.66 L 66.83 4.66 Q 67.62 5.52 67.97 6.3 Z M 72.1 10.88 L 72.1 10.88 Q 72.6 9.06 73.31 8.2 L 73.31 8.2 L 73.31 8.2 Q 74.02 7.34 74.63 7.34 L 74.63 7.34 L 74.63 7.34 Q 75.24 7.34 75.54 7.79 L 75.54 7.79 L 75.54 7.79 Q 75.85 8.25 75.85 8.95 L 75.85 8.95 L 75.85 8.95 Q 75.85 9.65 75.49 10.16 L 75.49 10.16 L 75.49 10.16 Q 75.12 10.67 74.42 10.67 L 74.42 10.67 L 74.42 10.67 Q 74.2 10.67 74.07 10.64 L 74.07 10.64 L 74.07 10.64 Q 74.55 9.95 74.55 9.24 L 74.55 9.24 L 74.55 9.24 Q 74.55 8.74 74.14 8.74 L 74.14 8.74 L 74.14 8.74 Q 73.82 8.74 73.46 9.11 L 73.46 9.11 L 73.46 9.11 Q 73.09 9.49 72.76 10.16 L 72.76 10.16 L 72.76 10.16 Q 72.42 10.84 72.2 11.91 L 72.2 11.91 L 72.2 11.91 Q 71.97 12.99 71.97 14.24 L 71.97 14.24 L 71.97 14.24 Q 71.97 14.38 72.04 15.43 L 72.04 15.43 L 72.04 15.43 Q 71.68 15.46 71.62 15.46 L 71.62 15.46 L 71.62 15.46 Q 70.39 15.46 70.39 14.25 L 70.39 14.25 L 70.39 14.25 Q 70.39 13.97 70.69 12.1 L 70.69 12.1 L 70.69 12.1 Q 70.98 10.22 70.98 9.11 L 70.98 9.11 L 70.98 9.11 Q 70.98 7.99 70.74 7.06 L 70.74 7.06 L 70.74 7.06 Q 71.57 7.38 71.9 7.97 L 71.9 7.97 L 71.9 7.97 Q 72.23 8.57 72.23 9.36 L 72.23 9.36 L 72.23 9.36 Q 72.23 10.15 72.1 10.88 L 72.1 10.88 Z M 80.35 8.08 L 80.35 8.08 L 80.35 8.08 Q 79.51 8.08 78.92 9.04 L 78.92 9.04 L 78.92 9.04 Q 78.34 10.01 78.15 11.31 L 78.15 11.31 L 78.54 11.31 L 78.54 11.31 Q 79.28 11.31 79.83 11.1 L 79.83 11.1 L 79.83 11.1 Q 80.37 10.89 80.67 10.56 L 80.67 10.56 L 80.67 10.56 Q 81.23 9.91 81.23 9.1 L 81.23 9.1 L 81.23 9.1 Q 81.23 8.64 81.01 8.36 L 81.01 8.36 L 81.01 8.36 Q 80.79 8.08 80.35 8.08 Z M 82.32 13.75 L 82.32 13.75 Q 81.68 14.8 80.91 15.22 L 80.91 15.22 L 80.91 15.22 Q 80.14 15.64 79.12 15.64 L 79.12 15.64 L 79.12 15.64 Q 78.11 15.64 77.35 14.74 L 77.35 14.74 L 77.35 14.74 Q 76.59 13.85 76.59 12.22 L 76.59 12.22 L 76.59 12.22 Q 76.59 10.37 77.59 8.92 L 77.59 8.92 L 77.59 8.92 Q 78.08 8.22 78.87 7.78 L 78.87 7.78 L 78.87 7.78 Q 79.66 7.35 80.61 7.35 L 80.61 7.35 L 80.61 7.35 Q 82.71 7.35 82.71 9.38 L 82.71 9.38 L 82.71 9.38 Q 82.71 10.6 81.77 11.29 L 81.77 11.29 L 81.77 11.29 Q 80.82 11.98 79.58 11.98 L 79.58 11.98 L 79.58 11.98 Q 78.75 11.98 78.09 11.83 L 78.09 11.83 L 78.09 11.83 Q 78.08 11.97 78.08 12.26 L 78.08 12.26 L 78.08 12.26 Q 78.08 14.74 79.55 14.74 L 79.55 14.74 L 79.55 14.74 Q 80.93 14.74 81.8 13.37 L 81.8 13.37 L 81.8 13.37 Q 82.32 13.44 82.32 13.75 L 82.32 13.75 Z" stroke-linecap="round" />
</g>
		<g transform="matrix(0.64 0 0 0.64 -80.59 -2.3)" id="R8WdzSiCCpZ6TKgprvg_S"  >
<path style="stroke: none; stroke-width: 1; stroke-dasharray: none; stroke-linecap: butt; stroke-dashoffset: 0; stroke-linejoin: miter; stroke-miterlimit: 4; fill: rgb(29,29,27); fill-rule: nonzero; opacity: 1;" vector-effect="non-scaling-stroke"  transform=" translate(-50.01, -46.46)" d="M 44 46.07 L 44 46 C 43.23997824170617 44.65704580303301 41.97124706623364 43.676662621986054 40.48 43.28 L 40.339999999999996 43.28 C 39.52641636685948 43.032158774261106 38.68804338856322 42.87454465434141 37.83999999999998 42.81 C 35.54685392426769 42.50266617320591 33.350618207994756 41.6897515534968 31.409999999999997 40.43 C 31.068549031268173 40.225135035396846 30.626523279662067 40.322816043110215 30.4031969442368 40.65248825254751 C 30.179870608811534 40.98216046198481 30.253103646466577 41.42888774629444 30.569999999999997 41.67 C 31.21143443676717 42.08374101566653 31.87956279752158 42.45455225588523 32.569999999999986 42.779999999999994 C 32.56999999999999 42.88 32.47999999999999 42.980000000000004 32.449999999999996 43.09 C 31.53559419421274 46.308294791569914 33.38861933509903 49.66160052845088 36.599999999999994 50.6 C 37.178783940744175 50.76587586041229 37.777915578530965 50.85002356234863 38.379999999999995 50.85 C 40.21258947798968 50.859632026444274 41.94560742414534 50.01714142575453 43.06999999999999 48.57 C 43.15656792673073 49.573427772389444 43.09592628027226 50.58412188003072 42.89 51.56999999999999 C 42.81040057782356 51.764358607656725 42.81594358784401 51.98318856980967 42.90528090755464 52.17326797344931 C 42.99461822726528 52.363347377088964 43.15956343597756 52.50725830585674 43.35999999999999 52.57 C 43.43949507105032 52.582711304571 43.52050492894967 52.582711304571 43.599999999999994 52.57 C 43.92151758786592 52.569758549495766 44.20711443353251 52.36461151950991 44.309999999999995 52.06 C 44.63052345178895 50.71798024463986 44.7084167180831 49.32944810635296 44.53999999999999 47.96 C 44.48842147356169 47.30018794181806 44.304786866780574 46.657466818084146 43.99999999999999 46.07 z M 39.53 44.58 C 39.56557919638472 44.75150754600345 39.56557919638472 44.92849245399655 39.53 45.1 C 39.33393891381007 45.79864020853596 38.60864020853595 46.20606108618993 37.91 46.010000000000005 C 37.21135979146405 45.81393891381007 36.80393891381007 45.088640208535956 37 44.39 C 37.02565933452803 44.33113965067454 37.05574560726551 44.27431002439263 37.09 44.22 L 37.690000000000005 44.29 C 38.31750236362503 44.33607957883605 38.93983074868945 44.43645512481419 39.55 44.589999999999996 z M 40.47 48.83 C 39.39513204799801 49.38303304001388 38.147697624980246 49.497739653624706 36.99 49.15 C 34.55977135999023 48.44811430489891 33.15548269638554 45.91234464800763 33.85 43.48 L 33.85 43.36 C 34.40585992720978 43.57519290237249 34.973430449775464 43.758818659673146 35.55000000000001 43.91 L 35.550000000000004 43.97 C 35.22769101757607 44.98474280009065 35.50878071198218 46.094477870042724 36.27529055663359 46.83342894321296 C 37.04180040128501 47.57238001638319 38.16107970034232 47.81266566407073 39.16334629826051 47.453433570314516 C 40.1656128961787 47.094201476558304 40.87741649410231 46.19761964551005 41 45.14 C 41.59987151746369 45.4436003755222 42.110042253085815 45.8986175181041 42.48 46.46 C 42.13634840400779 47.471039340962285 41.4263441289883 48.31662232176439 40.489999999999995 48.83 z M 67.57 43.07 C 67.57 42.96 67.49 42.87 67.44999999999999 42.76 C 68.1404372024784 42.43455225588523 68.80856556323282 42.06374101566653 69.44999999999999 41.64999999999999 C 69.76689635353341 41.40888774629444 69.84012939118847 40.9621604619848 69.6168030557632 40.632488252547496 C 69.39347672033793 40.30281604311019 68.9514509687318 40.205135035396836 68.60999999999999 40.41 C 66.66938179200523 41.669751553496795 64.4731460757323 42.48266617320591 62.179999999999986 42.79 C 61.32520519348893 42.853004113206225 60.48003696526902 43.01063469545359 59.65999999999998 43.26 L 59.539999999999985 43.26 C 58.03780632193146 43.656601666243056 56.76054812978554 44.64521393925996 56 46 L 56 46.05 C 55.6873845190918 46.65577951038543 55.50352848170566 47.319704089835405 55.46 48 C 55.2915832819169 49.36944810635296 55.36947654821104 50.75798024463987 55.69 52.10000000000001 C 55.79288556646748 52.404611519509906 56.07848241213407 52.609758549495766 56.4 52.61 C 56.6457449892317 52.61423814324721 56.8779720989467 52.497800208935594 57.02158340976049 52.29834005502755 C 57.16519472057428 52.09887990111952 57.201963720422796 51.84171212770402 57.12 51.61 C 56.9098682260938 50.6247315814456 56.8458492921763 49.613906309063964 56.93 48.61000000000001 C 58.054392575854656 50.05714142575452 59.78741052201031 50.89963202644427 61.62 50.89 C 62.22208442146903 50.89002356234863 62.82121605925582 50.805875860412286 63.4 50.64 C 64.9600561651361 50.1940886360706 66.2776741721673 49.14407304643113 67.06053979203115 47.72289972691809 C 67.843405411895 46.30172640740504 68.0267865474715 44.62690662305407 67.57 43.07000000000001 z M 62.269999999999996 44.29 L 62.87 44.22 C 62.904287910078416 44.274290612660856 62.93437556168132 44.33112284346634 62.96 44.39 C 63.15289245743048 45.07722541932725 62.7556097878152 45.79144145459067 62.07 45.99 C 61.65125569664463 46.11953994147997 61.19531083749077 46.023992465675015 60.863806370754475 45.73723093309945 C 60.532301904018176 45.45046940052388 60.37210180733633 45.01303258937893 60.44 44.580000000000005 C 61.04392518338361 44.430959745835786 61.65950982730926 44.33393825304316 62.279999999999994 44.290000000000006 z M 62.99999999999999 49.15 C 61.84230237501975 49.497739653624706 60.59486795200198 49.38303304001388 59.519999999999996 48.83 C 58.57796479097044 48.31615229649229 57.86393306728659 47.46645454530851 57.519999999999996 46.449999999999996 C 57.891282176603056 45.89228902132655 58.401336432287984 45.440822078794625 59 45.14 C 59.01512208103343 45.26474613464974 59.03850680480647 45.38835110316433 59.07 45.51 C 59.424498666362986 46.699037709327484 60.51924574482418 47.51297605762577 61.76 47.51 C 62.6175035239129 47.49213330814614 63.41951810722617 47.08223963426863 63.936313473420675 46.39772954546006 C 64.45310883961518 45.71321945665148 64.6276716987232 44.82960866905776 64.41 44 L 64.41 43.94 C 64.98656955022454 43.788818659673154 65.55414007279023 43.60519290237249 66.11 43.38999999999999 L 66.11 43.51 C 66.78768115617159 45.92386361030892 65.40304599703661 48.43490614970482 63 49.15 z" stroke-linecap="round" />
</g>
		<g transform="matrix(0.64 0 0 0.64 -81.78 -7.69)" id="zKJw3GlgAswHvkI91-1ic"  >
<path style="stroke: none; stroke-width: 1; stroke-dasharray: none; stroke-linecap: butt; stroke-dashoffset: 0; stroke-linejoin: miter; stroke-miterlimit: 4; fill: rgb(29,29,27); fill-rule: nonzero; opacity: 1;" vector-effect="non-scaling-stroke"  transform=" translate(-48.16, -38.06)" d="M 46.33 44.89 C 46.17 42.64 44.33 41.21 41.18 40.97 C 39.515895035491084 40.752750056326235 37.91897081384313 40.17608297628669 36.5 39.28 C 36.15482203135576 39.05080182882022 35.68919817117978 39.14482203135576 35.46 39.49 C 35.23080182882022 39.835177968644246 35.32482203135576 40.30080182882022 35.67 40.53 C 37.302699905861175 41.5697189264583 39.14815177547548 42.2292970946723 41.07 42.46 C 42.42 42.56 44.7 43.03 44.84 44.99 C 44.86636227610924 45.384569129995285 45.194552160082694 45.69087968837051 45.59 45.690000000000005 L 45.64 45.690000000000005 C 46.0506572523951 45.658049288221676 46.3587009567819 45.3008971671935 46.33 44.89000000000001 z M 59.31 42.46 C 61.231848224524526 42.229297094672305 63.077300094138835 41.5697189264583 64.71000000000001 40.53 C 65.05517796864426 40.30080182882022 65.14919817117979 39.835177968644246 64.92000000000002 39.49 C 64.69080182882023 39.14482203135576 64.22517796864426 39.05080182882022 63.88000000000001 39.28 C 62.46042197428298 40.18772101686469 60.85985146478115 40.774710628025275 59.19 41 C 56.08 41.24 54.19 42.67 54.04 44.92 C 54.026287827085156 45.11901815095128 54.09242856990099 45.3152990677984 54.22379363430932 45.46543056997935 C 54.355158698717645 45.615562072160294 54.540922871679065 45.70717248763003 54.74 45.72 L 54.79 45.72 C 55.18544783991731 45.7208796883705 55.51363772389076 45.41456912999528 55.54 45.019999999999996 C 55.68 42.99999999999999 58 42.56999999999999 59.31 42.459999999999994 z M 34.64 37.25 C 34.80685260124462 37.4662633892262 35.07808626253053 37.574715328328196 35.34804675162253 37.53311029989521 C 35.618007240714526 37.49150527146224 35.844002762306914 37.30642273222709 35.938000794148444 37.04995828230933 C 36.03199882598997 36.793493832391576 35.979134434519395 36.50620499128565 35.8 36.3 L 32.61 32.379999999999995 C 32.44314739875537 32.16373661077382 32.17191373746947 32.055284671671835 31.901953248377485 32.09688970010482 C 31.6319927592855 32.1384947285378 31.405997237693125 32.32357726777293 31.311999205851592 32.58004171769068 C 31.218001174010055 32.83650616760843 31.270865565480623 33.123795008714346 31.45 33.33 z M 38 35.08 C 38.111648004905454 35.36933968735848 38.389866613022825 35.560118161496106 38.7 35.559999999999995 C 38.94221929336065 35.5577085303103 39.16841916565871 35.43857297392057 39.30732902510276 35.240130317571925 C 39.44623888454681 35.041687661223285 39.48075421613984 34.78837292634003 39.400000000000006 34.559999999999995 L 37.99000000000001 30.879999999999995 C 37.840883117545694 30.49340067511844 37.40659932488156 30.30088311754568 37.02000000000001 30.449999999999996 C 36.63340067511845 30.59911688245431 36.440883117545695 31.03340067511844 36.59000000000001 31.419999999999995 z M 42 35.19 C 42.39187028148811 35.19125584267454 42.71865222881531 34.89061645113352 42.75 34.5 L 43 31.32 C 43.016565709718805 31.12094396236914 42.95304356778675 30.92350306738512 42.823516181296014 30.771449178895992 C 42.69398879480527 30.619395290406864 42.509157981463666 30.52529141180876 42.31 30.51 C 42.11034141088843 30.490627552233953 41.911372326288244 30.5531411618021 41.75866981087884 30.683221082336033 C 41.60596729546944 30.813301002869967 41.512616166690684 30.999800908402403 41.5 31.200000000000003 L 41.25 34.39 C 41.236140359555804 34.597424369146566 41.30899605679227 34.801296483260415 41.45117845022104 34.95295770291777 C 41.59336084364981 35.104618922575135 41.7921136256879 35.190462519687465 42 35.19 z" stroke-linecap="round" />
</g>
		<g transform="matrix(0.64 0 0 0.64 -80.58 0)" id="nuMcgfITnL4ZOPjK8lUf-"  >
<path style="stroke: none; stroke-width: 1; stroke-dasharray: none; stroke-linecap: butt; stroke-dashoffset: 0; stroke-linejoin: miter; stroke-miterlimit: 4; fill: rgb(29,29,27); fill-rule: nonzero; opacity: 1;" vector-effect="non-scaling-stroke"  transform=" translate(-50.02, -50.05)" d="M 95.31 61 C 91.41 59.76 82.23 59.87 74.77000000000001 60.21 C 79.77000000000001 53.9 79.77000000000001 47.8 78.88000000000001 44.93 C 78.2 42.78 77.15 37.36 78.49000000000001 35.25 C 78.73841454064805 34.82020404957838 79.17655687989007 34.534297607869604 79.67000000000002 34.48 C 81.43000000000002 34.25 81.75000000000001 32.419999999999995 82.00000000000001 30.959999999999997 C 82.0679279868146 30.436793377283987 82.18511490952922 29.9211709173396 82.35000000000001 29.419999999999998 C 82.65208427974501 28.87996503141321 83.06844912777139 28.41240778403933 83.57000000000001 28.049999999999997 C 84.97089637335885 26.931839193303876 86.065058852522 25.476396650266103 86.75000000000001 23.819999999999997 C 88.34000000000002 19.909999999999997 86.21000000000001 17.979999999999997 86.12000000000002 17.9 C 86.0370011517357 17.83720180329581 85.94153345108418 17.7928775137076 85.84000000000002 17.77 L 85.70000000000002 17.77 C 84.06441936482382 17.34306292742193 82.3252591122197 17.607010325426298 80.89000000000001 18.500000000000004 C 80.21000000000001 18.83 79.37000000000002 19.23 78.13000000000001 19.75 C 75.45979238761112 21.095011652380922 72.22657802804245 20.561531283052094 70.13000000000001 18.43 C 65.63000000000001 14.11 62.46000000000001 12.86 50.05000000000001 12.86 C 37.640000000000015 12.86 34.51000000000001 14.12 30.05000000000001 18.43 C 27.953421971957564 20.561531283052094 24.720207612388904 21.095011652380922 22.05000000000001 19.75 C 21.11798332821039 19.360392061501315 20.19758803553275 18.94354636735383 19.289999999999992 18.499999999999986 C 17.854740887780327 17.607010325426298 16.115580635176205 17.34306292742193 14.480000000000011 17.77 L 14.340000000000014 17.77 C 14.238466548915854 17.7928775137076 14.142998848264332 17.83720180329581 14.060000000000015 17.9 C 13.970000000000015 17.979999999999997 11.840000000000014 19.9 13.430000000000014 23.82 C 14.114941147478024 25.476396650266107 15.209103626641173 26.93183919330388 16.610000000000017 28.050000000000004 C 17.111334411600737 28.412647428327727 17.52765268935697 28.880152379578576 17.830000000000013 29.42 C 17.936468904929185 29.940111130865454 17.993390220334945 30.46914453287195 18 30.999999999999993 C 18.25 32.47 18.56 34.29 20.33 34.52 C 20.823443120109946 34.57429760786961 21.261585459351956 34.860204049578385 21.509999999999998 35.290000000000006 C 22.849999999999998 37.400000000000006 21.799999999999997 42.82000000000001 21.119999999999997 44.970000000000006 C 20.209999999999997 47.84 20.249999999999996 53.970000000000006 25.229999999999997 60.25000000000001 C 17.769999999999996 59.910000000000004 8.589999999999996 59.800000000000004 4.689999999999998 61.040000000000006 C 4.29511640387098 61.167025492461086 4.077974507538915 61.59011640387099 4.204999999999998 61.98500000000001 C 4.332025492461081 62.37988359612903 4.75511640387098 62.597025492461086 5.149999999999998 62.470000000000006 C 9.239999999999998 61.17000000000001 20.15 61.470000000000006 26.33 61.81000000000001 L 26.58 61.81000000000001 L 27.229999999999997 62.50000000000001 C 19.549999999999997 62.61000000000001 14.339999999999996 63.14000000000001 11.729999999999997 64.08000000000001 C 11.470745252197252 64.16556154130849 11.278461468820856 64.38524144228046 11.227983105159911 64.65354301963598 C 11.177504741498966 64.9218445969915 11.276806019890158 65.1963834254848 11.487240118706465 65.3703124100294 C 11.697674217522772 65.54424139457399 11.985998215055155 65.59008443862152 12.239999999999997 65.49000000000001 C 14.819999999999997 64.56 20.54 64.04 28.799999999999997 63.98000000000001 C 29.15 64.28000000000002 29.509999999999998 64.57000000000001 29.869999999999997 64.86000000000001 C 23.4 65.22000000000001 12.869999999999997 66.07000000000001 8.869999999999997 67.86000000000001 C 8.523958656870983 68.04420603693234 8.378153004578602 68.46383111758783 8.535417853116538 68.82291918841612 C 8.692682701654476 69.18200725924441 9.099958944025595 69.35940669260204 9.469999999999997 69.23000000000002 C 13.639999999999997 67.40000000000002 25.65 66.59000000000002 31.689999999999998 66.28000000000002 L 32.69 67.00000000000001 L 32.79 67.07000000000001 C 26.5 67.68 22.2 68.47000000000001 20 69.43 C 19.653958656870984 69.61420603693233 19.5081530045786 70.03383111758784 19.665417853116537 70.39291918841613 C 19.822682701654475 70.75200725924442 20.229958944025597 70.92940669260203 20.6 70.80000000000001 C 22.67 69.89000000000001 27.05 69.11000000000001 33.32 68.52000000000001 C 33.29141410988612 70.36936365427509 33.52027478481909 72.21371144638195 34 74.00000000000001 C 35.63 78.32 37.86 79.38 40.46 79.6 C 40.833893068260984 80.30341069827456 41.35181088513983 80.9201417828474 41.980000000000004 81.41 C 40.582093061941976 82.67643797466837 39.43246422988904 84.19232023994171 38.59 85.88 C 38.44088311754569 86.26659932488155 38.633400675118445 86.70088311754569 39.02 86.85 C 39.406599324881554 86.99911688245432 39.84088311754569 86.80659932488156 39.99 86.42 C 40.260000000000005 85.72 41.07 84.42 43.28 82.23 C 43.91927014144636 82.55541431050109 44.589208996507914 82.8166904639751 45.279999999999994 83.01 C 44.794786637558886 84.0978104521215 44.484300209147015 85.25538485370052 44.36 86.44000000000001 C 44.34910369883654 86.63898390170989 44.41784751134192 86.83412324762938 44.5510564635997 86.9823416592965 C 44.684265415857475 87.1305600709636 44.8709859093443 87.21966974157064 45.07 87.23000000000002 C 45.469082431430465 87.23056796708227 45.798715986261996 86.91851486850841 45.82 86.52000000000002 C 45.95177800474201 85.42145194935169 46.259018617515366 84.35117421035001 46.73 83.35000000000002 C 48.895066828317375 83.71085628312733 51.10493317168262 83.71085628312733 53.26999999999999 83.35000000000002 C 53.73842407308281 84.35213391532733 54.04554502914338 85.42199482819768 54.17999999999999 86.52000000000002 C 54.201284013738 86.91851486850841 54.53091756856953 87.23056796708227 54.92999999999999 87.23000000000002 C 55.129014090655694 87.21966974157064 55.31573458414252 87.1305600709636 55.44894353640029 86.9823416592965 C 55.582152488658075 86.83412324762938 55.650896301163456 86.63898390170989 55.63999999999999 86.44000000000001 C 55.526270353084605 85.25363181360082 55.225904209869014 84.09266604656526 54.74999999999999 83 C 55.44079100349207 82.80669046397512 56.110729858553626 82.54541431050112 56.74999999999999 82.22000000000001 C 58.959999999999994 84.41000000000001 59.74999999999999 85.71000000000001 60.03999999999999 86.41000000000001 C 60.18911688245431 86.79659932488157 60.62340067511844 86.98911688245433 61.00999999999999 86.84 C 61.39659932488155 86.6908831175457 61.589116882454306 86.25659932488156 61.43999999999999 85.87 C 60.597535770110944 84.18232023994172 59.44790693805802 82.6664379746684 58.05 81.4 C 58.67818911486017 80.9101417828474 59.19610693173901 80.29341069827458 59.56999999999999 79.59 C 62.169999999999995 79.37 64.39999999999999 78.32000000000001 66.02 74 C 66.48710381078932 72.222028487714 66.70584635403702 70.38795639432952 66.67 68.55000000000001 C 72.94 69.14 77.33 69.92 79.39 70.83 C 79.63861019431069 70.96234111918781 79.94040662208428 70.94424579796289 80.1714225359542 70.7831469212383 C 80.40243844982412 70.6220480445137 80.52372742175275 70.34510489194331 80.48546845335272 70.06607540984501 C 80.44720948495268 69.78704592774672 80.25585256546766 69.55297103837934 79.99 69.46 C 77.77 68.46 73.39 67.69 66.99 67.08 L 67.78999999999999 66.52 L 68.1 66.3 C 74.1 66.6 86.3 67.41 90.52 69.3 C 90.8900410559744 69.429406692602 91.2973172983455 69.25200725924438 91.45458214688344 68.8929191884161 C 91.61184699542137 68.53383111758781 91.46604134312899 68.11420603693232 91.11999999999999 67.92999999999999 C 87.05999999999999 66.14999999999999 76.50999999999999 65.30999999999999 70.04999999999998 64.92999999999999 Q 70.61999999999998 64.49999999999999 71.15999999999998 64.05 C 79.43999999999998 64.1 85.15999999999998 64.61999999999999 87.74999999999999 65.56 C 88.13550057767031 65.68722630493882 88.55225476999044 65.48463452861307 88.69033377713 65.1028866853449 C 88.82841278426955 64.72113884207674 88.63768964948727 64.2988212240331 88.25999999999999 64.15 C 85.66 63.21000000000001 80.44999999999999 62.68000000000001 72.75999999999999 62.57000000000001 L 73.41 61.88000000000001 L 73.66 61.88000000000001 C 79.81 61.57000000000001 90.75 61.24000000000001 94.84 62.540000000000006 C 95.26525925736972 62.66978691621024 95.71521308378976 62.43025925736972 95.845 62.00500000000001 C 95.97478691621023 61.57974074263029 95.73525925736972 61.12978691621024 95.31 61.00000000000001 z M 53.31 79.91 C 53.102893218813456 79.55101491260999 52.64398508739002 79.42789321881345 52.285000000000004 79.63499999999999 C 51.926014912609986 79.84210678118654 51.80289321881346 80.30101491260999 52.010000000000005 80.66 C 52.17 80.92999999999999 52.400000000000006 81.36 52.650000000000006 81.86 C 50.91908955472747 82.11152196902692 49.160910445272535 82.11152196902692 47.43000000000001 81.86 C 47.78000000000001 81.15 48.06000000000001 80.67 48.07000000000001 80.66 C 48.27710678118655 80.30101491260999 48.153985087390026 79.84210678118654 47.79500000000001 79.63499999999999 C 47.43601491260999 79.42789321881345 46.977106781186556 79.55101491260999 46.77000000000001 79.91 C 46.77000000000001 79.97 46.35000000000001 80.64 45.90000000000001 81.57 C 44.533770028180285 81.27566165550962 43.286922469532946 80.57909877358372 42.320000000000014 79.57 L 44.750000000000014 79.57 C 46.94222480544962 79.56103668168188 48.95504909897248 78.35717605660345 50 76.43 C 51.05444778680434 78.36590620092538 53.085564940200314 79.56768251285911 55.29 79.56 L 57.72 79.56 C 56.75307753046707 80.56909877358375 55.50622997181973 81.26566165550963 54.14 81.56 C 53.69 80.66 53.31 80 53.27 79.93 z M 70.41 62.64999999999999 L 70.33 62.709999999999994 C 69.49 63.41 68.56 64.08999999999999 67.64999999999999 64.71 L 66.86999999999999 64.71 C 66.99999999999999 62.99999999999999 67.32 61.459999999999994 67.93999999999998 60.99999999999999 C 68.27137084989846 60.74042616757952 68.32957383242046 60.26137084989847 68.07 59.92999999999999 C 67.81042616757951 59.598629150101516 67.33137084989846 59.54042616757952 66.99999999999999 59.79999999999999 C 65.99999999999999 60.62999999999999 65.55999999999999 62.43999999999999 65.36999999999999 64.63 L 64.75999999999999 64.63 C 64.55955936811625 64.61900019924364 64.36343441710781 64.69102674361196 64.21775478189824 64.8291386055639 C 64.07207514668865 64.96725046751584 63.98969840282708 65.15925799750482 63.98999999999999 65.36 C 63.9846243600793 65.55893215659704 64.05853110188541 65.75184522185764 64.19544758491888 65.89626397793404 C 64.33236406795234 66.04068273401043 64.52106407102357 66.1247658243054 64.71999999999998 66.13 L 65.27999999999999 66.13 L 65.27999999999999 66.86999999999999 L 65.09999999999998 66.86999999999999 C 64.69070146615776 66.84083304655367 64.33215539569846 67.1418346859516 64.28999999999998 67.55 C 64.25533171044628 67.96106295247358 64.55914421445554 68.32295725871991 64.96999999999998 68.36 L 65.17999999999998 68.36 C 65.20878549027135 70.06029536875891 65.02060061130831 71.75731972369347 64.61999999999998 73.41 C 63.20999999999998 77.16 61.519999999999975 77.95 59.06999999999998 78.07 L 55.29 78.07 C 52.81743169941665 78.06493761429866 50.80356439438348 76.08218967159492 50.76 73.61 C 51.10847513537101 73.28072575235984 51.49843518894374 72.99834088597959 51.919999999999995 72.77 C 52.919999999999995 72.13 54.38999999999999 71.25 53.849999999999994 69.97999999999999 C 53.66 69.53999999999999 53.78999999999999 69.32999999999998 55.50999999999999 68.16 L 56.13999999999999 67.72999999999999 C 56.886546251392275 67.32919344608376 57.37678871007939 66.57497427887282 57.43999999999999 65.72999999999999 C 57.39285039266922 65.0768585235648 57.040873534790535 64.48405539450594 56.48999999999999 64.13 C 56.15154417976833 63.923664819781166 55.710609575768935 64.02067043266103 55.48999999999999 64.35 C 55.29203905390077 64.6876757581583 55.38292818043986 65.12048112263015 55.69999999999999 65.35 C 55.77999999999999 65.41 55.95999999999999 65.58 55.96999999999999 65.72 C 55.98 65.86 55.79999999999999 66.13 55.309999999999995 66.47 L 54.69 66.9 C 53.059999999999995 68 51.78 68.9 52.489999999999995 70.47 C 52.41 70.72 51.599999999999994 71.21 51.16 71.47 C 50.76656583236055 71.7011521403378 50.38905440436474 71.9583944408305 50.029999999999994 72.24 C 49.67094559563524 71.9583944408305 49.29343416763943 71.70115214033778 48.89999999999999 71.47 C 48.42416574452996 71.20928876610117 47.978194098778886 70.89744393110229 47.56999999999999 70.53999999999999 C 48.279999999999994 68.86999999999999 46.989999999999995 67.99999999999999 45.36999999999999 66.88999999999999 L 44.74999999999999 66.45999999999998 C 44.269999999999996 66.11999999999998 44.089999999999996 65.84999999999998 44.089999999999996 65.70999999999998 C 44.089999999999996 65.56999999999998 44.269999999999996 65.39999999999998 44.349999999999994 65.33999999999997 C 44.673573769867346 65.10690198155751 44.75815015866464 64.66134729490813 44.54250062072145 64.3258924581076 C 44.32685108277826 63.99043762130709 43.886395971777056 63.88240318452817 43.53999999999999 64.07999999999997 C 42.989126465209445 64.43405539450593 42.63714960733076 65.02685852356477 42.58999999999999 65.67999999999996 C 42.65321128992059 66.52497427887279 43.143453748607705 67.27919344608374 43.889999999999986 67.67999999999996 L 44.51999999999999 68.10999999999997 C 46.249999999999986 69.27999999999997 46.36999999999999 69.48999999999997 46.179999999999986 69.92999999999996 C 45.639999999999986 71.20999999999997 47.069999999999986 72.07999999999997 48.109999999999985 72.71999999999997 C 48.513323029828584 72.95064442417673 48.90084630183059 73.20787969955737 49.269999999999975 73.48999999999997 C 49.25898862126472 75.98955874536001 47.22958299949795 78.01002425425555 44.72999999999998 78.00999999999996 L 43.16999999999998 78.00999999999996 C 39.44999999999998 78.09999999999997 37.16999999999998 78.14999999999996 35.38999999999998 73.34999999999997 C 34.99014894751857 71.69718795866255 34.80197472623498 70.00025971315877 34.82999999999998 68.29999999999997 L 35.03999999999998 68.29999999999997 C 35.45421356237307 68.26410149126097 35.760898508738975 67.89921356237306 35.72499999999997 67.48499999999997 C 35.68910149126098 67.07078643762688 35.32421356237307 66.76410149126097 34.909999999999975 66.79999999999997 L 34.769999999999975 66.79999999999997 L 34.769999999999975 66.05999999999997 L 35.32999999999998 66.05999999999997 C 35.74421356237307 66.05999999999997 36.07999999999998 65.72421356237307 36.07999999999998 65.30999999999997 C 36.07999999999998 64.89578643762688 35.74421356237307 64.55999999999997 35.32999999999998 64.55999999999997 L 34.71999999999998 64.55999999999997 C 34.52999999999998 62.369999999999976 34.13999999999998 60.559999999999974 33.089999999999975 59.729999999999976 C 32.73929918385741 59.445573353837126 32.224426646162826 59.49929918385744 31.939999999999976 59.85 C 31.655573353837127 60.200700816142565 31.709299183857443 60.71557335383715 32.06 61 C 32.68 61.49 32.97 63 33.120000000000005 64.71 L 32.17 64.71 C 31.32 64.07 30.470000000000002 63.39999999999999 29.69 62.709999999999994 C 29.646840410936512 62.656504206569934 29.5963417133574 62.60937208882943 29.540000000000003 62.56999999999999 C 29.28 62.339999999999996 29.020000000000003 62.10999999999999 28.78 61.879999999999995 L 31.11 62.029999999999994 L 31.169999999999998 62.029999999999994 C 31.584213562373094 62.04656854249492 31.933431457505073 61.72421356237309 31.949999999999996 61.309999999999995 C 31.966568542494922 60.895786437626896 31.644213562373093 60.54656854249492 31.229999999999997 60.529999999999994 C 31.229999999999997 60.529999999999994 29.659999999999997 60.41 27.229999999999997 60.279999999999994 C 21.789999999999996 54.089999999999996 21.65 48.08 22.509999999999998 45.35999999999999 C 22.509999999999998 45.279999999999994 24.839999999999996 37.739999999999995 22.74 34.42999999999999 C 22.25756873665738 33.64817033503463 21.450356849936963 33.12348260866636 20.54 32.99999999999999 C 19.919999999999998 32.919999999999995 19.72 31.999999999999993 19.54 30.709999999999994 C 19.45485647409001 30.08356640059207 19.30746064747894 29.46718385294577 19.099999999999994 28.869999999999987 C 18.720527203129585 28.098936228794976 18.161539207582056 27.430208258661427 17.47 26.919999999999995 C 16.24080938587566 25.95839045098701 15.282795613079918 24.693674427188316 14.69 23.249999999999993 C 13.69 20.889999999999993 14.459999999999999 19.589999999999993 14.79 19.169999999999995 C 15.521586759710209 19.10637405857751 16.25272298636367 19.29710524813928 16.86 19.709999999999994 C 16.93 19.769999999999992 24.38 25.229999999999993 27.65 25.229999999999993 L 28 25.229999999999993 C 25 27.379999999999992 23.240000000000002 30.129999999999995 23.240000000000002 32.81999999999999 C 23.240000000000002 33.234213562373085 23.575786437626906 33.56999999999999 23.990000000000002 33.56999999999999 C 24.404213562373098 33.56999999999999 24.740000000000002 33.234213562373085 24.740000000000002 32.81999999999999 C 24.740000000000002 30.009999999999994 27.340000000000003 26.929999999999993 31.37 24.959999999999994 C 32.93825924101205 24.726132617009913 34.454063567900754 24.221992338647375 35.849999999999994 23.47 C 36.090089624186916 23.34276730704106 36.24258577029425 23.09562838925519 36.248626329174115 22.82397659476781 C 36.25466688805399 22.55232480028043 36.11330700263634 22.298651581243277 35.87911028791725 22.160872465936997 C 35.64491357319817 22.023093350630713 35.354512802085914 22.02275958518858 35.120000000000005 22.159999999999997 C 32.77396872114851 23.316948640893433 30.173018291130425 23.860533519124726 27.560000000000002 23.739999999999995 C 26.310000000000006 23.739999999999995 23.920000000000005 22.529999999999994 21.700000000000006 21.189999999999994 C 24.857442789775483 22.60914977445589 28.564094202135607 21.919632898823306 31.000000000000007 19.459999999999994 C 35.00000000000001 15.639999999999993 37.49000000000001 14.309999999999993 50.00000000000001 14.309999999999993 C 62.510000000000005 14.309999999999993 65 15.649999999999993 69 19.459999999999994 C 70.52169214401931 21.0104611807813 72.5976394628538 21.891929279766483 74.77 21.909999999999993 C 75.94829254249304 21.89264810615968 77.11372647533024 21.662271631063952 78.21 21.229999999999997 C 76 22.559999999999995 73.61 23.759999999999994 72.36999999999999 23.759999999999994 C 69.75698170886956 23.880533519124725 67.15603127885147 23.336948640893432 64.80999999999999 22.179999999999993 C 64.44944731390756 21.988929313957286 64.0022954171628 22.12117101740191 63.803666077961104 22.477615448024125 C 63.60503673875941 22.83405987864634 63.72782226220103 23.28390029715666 64.07999999999998 23.48999999999999 C 65.48396362739194 24.25204911888561 67.01022420138882 24.763058756742655 68.59 25 C 72.59 27 75.22 30 75.22 32.86 C 75.22 33.27421356237309 75.5557864376269 33.61 75.97 33.61 C 76.38421356237309 33.61 76.72 33.27421356237309 76.72 32.86 C 76.72 30.16 74.95 27.41 71.96 25.27 L 72.39999999999999 25.27 C 75.66999999999999 25.27 83.11999999999999 19.81 83.19 19.75 C 83.79453723693105 19.339342611231714 84.52174948869218 19.148714156886562 85.25 19.21 C 85.58 19.64 86.3 20.94 85.35 23.29 C 84.75720438692008 24.733674427188323 83.79919061412433 25.998390450987017 82.57 26.96 C 81.87846079241794 27.470208258661437 81.31947279687041 28.138936228794986 80.94 28.91 C 80.73241136356415 29.50714641206098 80.58501244493348 30.123541889971058 80.5 30.749999999999996 C 80.27 32.08 80.08 32.96 79.5 33.04 C 78.56768214732811 33.15370753760753 77.73870935475198 33.687934448378826 77.25 34.49 C 75.14 37.800000000000004 77.45 45.35 77.48 45.42 C 78.35000000000001 48.15 78.2 54.160000000000004 72.76 60.34 C 70.37 60.470000000000006 68.76 60.59 68.76 60.59 C 68.34578643762691 60.60656854249493 68.02343145750508 60.95578643762691 68.04 61.370000000000005 C 68.05656854249493 61.7842135623731 68.40578643762692 62.10656854249493 68.82000000000001 62.09 L 68.88000000000001 62.09 L 71.21000000000001 61.940000000000005 C 71.00000000000001 62.17 70.69000000000001 62.410000000000004 70.41000000000001 62.650000000000006 z" stroke-linecap="round" />
</g>
		<g transform="matrix(0.64 0 0 0.64 -72.37 -10.34)" id="QxesGCSGmi-6_tOowWBui"  >
<path style="stroke: none; stroke-width: 1; stroke-dasharray: none; stroke-linecap: butt; stroke-dashoffset: 0; stroke-linejoin: miter; stroke-miterlimit: 4; fill: rgb(29,29,27); fill-rule: nonzero; opacity: 1;" vector-effect="non-scaling-stroke"  transform=" translate(-62.83, -33.93)" d="M 64.77 37.53 C 64.99560662170491 37.52865346251938 65.20862135059409 37.42581876581426 65.35 37.25 L 68.53999999999999 33.33 C 68.71913443451939 33.123795008714346 68.77199882598997 32.83650616760842 68.67800079414845 32.58004171769066 C 68.58400276230691 32.323577267772905 68.35800724071453 32.13849472853776 68.08804675162253 32.09688970010478 C 67.81808626253053 32.0552846716718 67.54685260124462 32.163736610773796 67.38 32.379999999999995 L 64.19 36.3 C 64.00961207243857 36.52430988367946 63.97351565544202 36.832069739915426 64.09710442437294 37.09203232283909 C 64.22069319330387 37.35199490576275 64.4821601052532 37.51829022856543 64.77 37.519999999999996 z M 61.07 35.51 C 61.1592384375471 35.52655785260965 61.2507615624529 35.52655785260965 61.34 35.51 C 61.65013338697718 35.51011816149611 61.92835199509455 35.319339687358486 62.040000000000006 35.03 L 63.45 31.35 C 63.59911688245432 30.963400675118447 63.40659932488156 30.529116882454318 63.02 30.380000000000003 C 62.633400675118445 30.230883117545687 62.19911688245432 30.423400675118447 62.050000000000004 30.810000000000002 L 60.64000000000001 34.49 C 60.55202666127348 34.681278726759196 60.54850270017236 34.90072631203176 60.63028903028009 35.094731095078004 C 60.71207536038782 35.28873587812426 60.871639687918304 35.43943055740507 61.07000000000001 35.510000000000005 z M 58 35.2 C 58.199157981463664 35.18470858819124 58.38398879480527 35.09060470959314 58.51351618129601 34.93855082110401 C 58.64304356778675 34.78649693261488 58.7065657097188 34.58905603763086 58.69 34.39 L 58.44 31.2 C 58.40686291501015 30.785786437626903 58.044213562373095 30.47686291501015 57.629999999999995 30.509999999999998 C 57.2157864376269 30.543137084989848 56.90686291501015 30.905786437626904 56.94 31.32 L 57.19 34.51 C 57.20529141180876 34.70915798146366 57.29939529040686 34.89398879480527 57.45144917889599 35.02351618129601 C 57.60350306738512 35.153043567786746 57.80094396236914 35.2165657097188 58 35.199999999999996 z" stroke-linecap="round" />
</g>
		<g transform="matrix(0.64 0 0 0.64 -88.21 12.7)" id="snLDV_zfds4OQOsOL8ffA"  >
<path style="stroke: none; stroke-width: 1; stroke-dasharray: none; stroke-linecap: butt; stroke-dashoffset: 0; stroke-linejoin: miter; stroke-miterlimit: 4; fill: rgb(29,29,27); fill-rule: nonzero; opacity: 1;" vector-effect="non-scaling-stroke"  transform=" translate(-1.05, -1.05)" d="M 0 1.05 C 0 0.4701000000000001 0.4701 0 1.05 0 C 1.6299000000000001 0 2.1 0.4701 2.1 1.05 C 2.1 1.6299000000000001 1.6299000000000001 2.1 1.05 2.1 C 0.4701000000000001 2.1 0 1.6299000000000001 0 1.05 z" stroke-linecap="round" />
</g>
		<g transform="matrix(0.64 0 0 0.64 -87.99 14.99)" id="Z4eRa4nUapwqosX2boo9T"  >
<path style="stroke: none; stroke-width: 1; stroke-dasharray: none; stroke-linecap: butt; stroke-dashoffset: 0; stroke-linejoin: miter; stroke-miterlimit: 4; fill: rgb(29,29,27); fill-rule: nonzero; opacity: 1;" vector-effect="non-scaling-stroke"  transform=" translate(-1.05, -1.05)" d="M 0 1.05 C 0 0.4701000000000001 0.4701 0 1.05 0 C 1.6299000000000001 0 2.1 0.4701 2.1 1.05 C 2.1 1.6299000000000001 1.6299000000000001 2.1 1.05 2.1 C 0.4701000000000001 2.1 0 1.6299000000000001 0 1.05 z" stroke-linecap="round" />
</g>
		<g transform="matrix(0.64 0 0 0.64 -86.23 16.5)" id="8CsM8cHDqKU16STVoZoqy"  >
<path style="stroke: none; stroke-width: 1; stroke-dasharray: none; stroke-linecap: butt; stroke-dashoffset: 0; stroke-linejoin: miter; stroke-miterlimit: 4; fill: rgb(29,29,27); fill-rule: nonzero; opacity: 1;" vector-effect="non-scaling-stroke"  transform=" translate(-1.05, -1.05)" d="M 0 1.05 C 0 0.4701000000000001 0.4701 0 1.05 0 C 1.6299000000000001 0 2.1 0.4701 2.1 1.05 C 2.1 1.6299000000000001 1.6299000000000001 2.1 1.05 2.1 C 0.4701000000000001 2.1 0 1.6299000000000001 0 1.05 z" stroke-linecap="round" />
</g>
		<g transform="matrix(0.64 0 0 0.64 -85.64 14.15)" id="nsrPWkSye1aFYA6Yw7X6X"  >
<path style="stroke: none; stroke-width: 1; stroke-dasharray: none; stroke-linecap: butt; stroke-dashoffset: 0; stroke-linejoin: miter; stroke-miterlimit: 4; fill: rgb(29,29,27); fill-rule: nonzero; opacity: 1;" vector-effect="non-scaling-stroke"  transform=" translate(-1.05, -1.05)" d="M 0 1.05 C 0 0.4701000000000001 0.4701 0 1.05 0 C 1.6299000000000001 0 2.1 0.4701 2.1 1.05 C 2.1 1.6299000000000001 1.6299000000000001 2.1 1.05 2.1 C 0.4701000000000001 2.1 0 1.6299000000000001 0 1.05 z" stroke-linecap="round" />
</g>
		<g transform="matrix(0.64 0 0 0.64 -83.77 15.34)" id="c9XyZ_wBf3bxwV_-3EwdJ"  >
<path style="stroke: none; stroke-width: 1; stroke-dasharray: none; stroke-linecap: butt; stroke-dashoffset: 0; stroke-linejoin: miter; stroke-miterlimit: 4; fill: rgb(29,29,27); fill-rule: nonzero; opacity: 1;" vector-effect="non-scaling-stroke"  transform=" translate(-1.05, -1.05)" d="M 0 1.05 C 0 0.4701000000000001 0.4701 0 1.05 0 C 1.6299000000000001 0 2.1 0.4701 2.1 1.05 C 2.1 1.6299000000000001 1.6299000000000001 2.1 1.05 2.1 C 0.4701000000000001 2.1 0 1.6299000000000001 0 1.05 z" stroke-linecap="round" />
</g>
		<g transform="matrix(0.64 0 0 0.64 -72.98 12.7)" id="WbBFRZtaGYrapcE6y2XPb"  >
<path style="stroke: none; stroke-width: 1; stroke-dasharray: none; stroke-linecap: butt; stroke-dashoffset: 0; stroke-linejoin: miter; stroke-miterlimit: 4; fill: rgb(29,29,27); fill-rule: nonzero; opacity: 1;" vector-effect="non-scaling-stroke"  transform=" translate(-1.05, -1.05)" d="M 0 1.05 C 0 0.4701000000000001 0.4701 0 1.05 0 C 1.6299000000000001 0 2.1 0.4701 2.1 1.05 C 2.1 1.6299000000000001 1.6299000000000001 2.1 1.05 2.1 C 0.4701000000000001 2.1 0 1.6299000000000001 0 1.05 z" stroke-linecap="round" />
</g>
		<g transform="matrix(0.64 0 0 0.64 -73.21 14.99)" id="OZ1x_bMjC3O9m6PTdSGdl"  >
<path style="stroke: none; stroke-width: 1; stroke-dasharray: none; stroke-linecap: butt; stroke-dashoffset: 0; stroke-linejoin: miter; stroke-miterlimit: 4; fill: rgb(29,29,27); fill-rule: nonzero; opacity: 1;" vector-effect="non-scaling-stroke"  transform=" translate(-1.05, -1.05)" d="M 0 1.05 C 0 0.4701000000000001 0.4701 0 1.05 0 C 1.6299000000000001 0 2.1 0.4701 2.1 1.05 C 2.1 1.6299000000000001 1.6299000000000001 2.1 1.05 2.1 C 0.4701000000000001 2.1 0 1.6299000000000001 0 1.05 z" stroke-linecap="round" />
</g>
		<g transform="matrix(0.64 0 0 0.64 -74.97 16.5)" id="mmY5DBKt9cPS9ep3hHEfT"  >
<path style="stroke: none; stroke-width: 1; stroke-dasharray: none; stroke-linecap: butt; stroke-dashoffset: 0; stroke-linejoin: miter; stroke-miterlimit: 4; fill: rgb(29,29,27); fill-rule: nonzero; opacity: 1;" vector-effect="non-scaling-stroke"  transform=" translate(-1.05, -1.05)" d="M 0 1.05 C 0 0.4701000000000001 0.4701 0 1.05 0 C 1.6299000000000001 0 2.1 0.4701 2.1 1.05 C 2.1 1.6299000000000001 1.6299000000000001 2.1 1.05 2.1 C 0.4701000000000001 2.1 0 1.6299000000000001 0 1.05 z" stroke-linecap="round" />
</g>
		<g transform="matrix(0.64 0 0 0.64 -75.56 14.15)" id="WgGBQFuQv6_nMyfes9qfo"  >
<path style="stroke: none; stroke-width: 1; stroke-dasharray: none; stroke-linecap: butt; stroke-dashoffset: 0; stroke-linejoin: miter; stroke-miterlimit: 4; fill: rgb(29,29,27); fill-rule: nonzero; opacity: 1;" vector-effect="non-scaling-stroke"  transform=" translate(-1.05, -1.05)" d="M 0 1.05 C 0 0.4701000000000001 0.4701 0 1.05 0 C 1.6299000000000001 0 2.1 0.4701 2.1 1.05 C 2.1 1.6299000000000001 1.6299000000000001 2.1 1.05 2.1 C 0.4701000000000001 2.1 0 1.6299000000000001 0 1.05 z" stroke-linecap="round" />
</g>
		<g transform="matrix(0.64 0 0 0.64 -77.43 15.34)" id="zo9nPQqC5Z7JjZZ2qOjih"  >
<path style="stroke: none; stroke-width: 1; stroke-dasharray: none; stroke-linecap: butt; stroke-dashoffset: 0; stroke-linejoin: miter; stroke-miterlimit: 4; fill: rgb(29,29,27); fill-rule: nonzero; opacity: 1;" vector-effect="non-scaling-stroke"  transform=" translate(-1.05, -1.05)" d="M 0 1.05 C 0 0.4701000000000001 0.4701 0 1.05 0 C 1.6299000000000001 0 2.1 0.4701 2.1 1.05 C 2.1 1.6299000000000001 1.6299000000000001 2.1 1.05 2.1 C 0.4701000000000001 2.1 0 1.6299000000000001 0 1.05 z" stroke-linecap="round" />
</g>
		<g transform="matrix(0.64 0 0 0.64 -80.59 6.34)" id="m1kJkO_OVnKelp28ADOgn"  >
<path style="stroke: none; stroke-width: 1; stroke-dasharray: none; stroke-linecap: butt; stroke-dashoffset: 0; stroke-linejoin: miter; stroke-miterlimit: 4; fill: rgb(29,29,27); fill-rule: nonzero; opacity: 1;" vector-effect="non-scaling-stroke"  transform=" translate(-50.01, -59.93)" d="M 53.56 52.5 C 53.36094396236914 52.483434290281195 53.16350306738512 52.54695643221325 53.011449178895994 52.676483818703986 C 52.85939529040686 52.80601120519473 52.76529141180876 52.990842018536334 52.75 53.19 C 52.466547814263016 55.245110079373 51.49755737362689 57.1443313430198 50 58.58 C 48.50459118646386 57.141204071800274 47.54204811666736 55.23727272495005 47.27 53.18 C 47.23686291501016 52.76578643762691 46.8742135623731 52.45686291501015 46.46 52.489999999999995 C 46.04578643762691 52.52313708498985 45.73686291501016 52.885786437626905 45.77 53.3 C 46.1325764931914 55.965869383997166 47.45958422238192 58.40642515403658 49.5 60.16 C 49.63262206894014 60.26873666008826 49.798504581590834 60.32873671785553 49.97 60.33 C 50.141495418409164 60.32873671785553 50.30737793105986 60.26873666008826 50.44 60.16 C 52.48041577761808 58.406425154036576 53.807423506808604 55.96586938399716 54.169999999999995 53.29999999999999 C 54.20218585917779 52.91627968424967 53.938553127009236 52.57053183878271 53.559999999999995 52.5 z M 40.37 55.2 C 40.018061586604944 55.008409807613994 39.57768328751059 55.127311948369474 39.37 55.470000000000006 C 39.169999999999995 55.82000000000001 38.91 56.190000000000005 38.64 56.580000000000005 C 37.3 58.52 35.28 61.46000000000001 38.13 64.58000000000001 C 38.41742964272284 64.82173021257817 38.83934149983518 64.81359360794595 39.11723731609761 64.56096104770738 C 39.39513313236004 64.30832848746881 39.443324091719525 63.88909889530845 39.230000000000004 63.58000000000001 C 37.34 61.530000000000015 38.300000000000004 59.76000000000001 39.870000000000005 57.48000000000001 C 40.160000000000004 57.05000000000001 40.440000000000005 56.65000000000001 40.660000000000004 56.27000000000001 C 40.77331611018046 56.092044797457746 40.80644178863828 55.87459295838065 40.751253872112656 55.670968576717144 C 40.69606595558703 55.46734419505363 40.55766861544114 55.296379903074744 40.370000000000005 55.20000000000001 z M 60.69 55.47 C 60.48289321881345 55.11101491260998 60.02398508739002 54.987893218813454 59.665 55.195 C 59.30601491260998 55.402106781186546 59.182893218813454 55.86101491260998 59.39 56.22 C 59.61 56.6 59.89 57 60.18 57.43 C 61.75 59.71 62.71 61.48 60.82 63.53 C 60.59653604286105 63.71793465194139 60.50245625323026 64.01847705396692 60.57887511229928 64.30028502319263 C 60.655293971368295 64.58209299241834 60.88831840845806 64.79393338977268 61.17611274904677 64.84322832932672 C 61.46390708963549 64.89252326888077 61.754149862772906 64.77031085186127 61.92 64.53 C 64.77 61.44 62.75 58.53 61.410000000000004 56.53 C 61.160000000000004 56.19 60.900000000000006 55.82 60.690000000000005 55.47 z M 41.89 65 C 42.01702549246108 64.60511640387098 41.799883596129014 64.18202549246108 41.405 64.055 C 41.01011640387098 63.92797450753892 40.58702549246108 64.14511640387099 40.46 64.54 C 39.8832723478907 66.39593883378419 40.67854725394349 68.40286294225248 42.37 69.36000000000001 C 42.728985087390015 69.56710678118657 43.18789321881345 69.44398508739003 43.394999999999996 69.08500000000002 C 43.60210678118654 68.72601491261 43.478985087390015 68.26710678118657 43.12 68.06000000000002 C 42.038935924459615 67.4583523456627 41.526082668592345 66.1824735139929 41.89 65 z M 57.62 69.33 C 59.3114527460565 68.37286294225247 60.10672765210929 66.36593883378417 59.529999999999994 64.50999999999999 C 59.402974507538914 64.11511640387097 58.979883596129014 63.897974507538905 58.584999999999994 64.02499999999999 C 58.19011640387098 64.15202549246106 57.972974507538915 64.57511640387096 58.099999999999994 64.96999999999998 C 58.4479939135081 66.14331254801587 57.937352521945506 67.40123402479202 56.87 68 C 56.51101491260998 68.20710678118655 56.38789321881345 68.66601491260998 56.595 69.025 C 56.802106781186545 69.38398508739002 57.26101491260998 69.50710678118655 57.62 69.3 z M 52.88 65.15 C 52.15267906537955 65.98297696730181 51.100823842206566 66.46093767445107 49.995000000000005 66.46093767445107 C 48.889176157793436 66.46093767445107 47.83732093462045 65.98297696730181 47.11 65.15 C 46.833857625084605 64.82967484509814 46.35032515490186 64.79385762508461 46.03 65.07000000000001 C 45.70967484509814 65.3461423749154 45.67385762508461 65.82967484509814 45.95 66.15 C 46.96071180030504 67.32968427978318 48.43655436424592 68.00867077555458 49.99 68.00867077555458 C 51.54344563575408 68.00867077555458 53.01928819969496 67.32968427978318 54.03 66.15 C 54.208632794954084 65.94278595785327 54.26314892893511 65.65601282525765 54.17301270189222 65.39770526580503 C 54.08287647484933 65.13939770635241 53.861781723889194 64.94879878311092 53.59301270189222 64.89770526580503 C 53.324243679895254 64.84661174849914 53.04863279495409 64.94278595785327 52.870000000000005 65.15 z M 30.51 50.52 C 30.274286240545962 50.36365892445509 29.970663896412287 50.3532260109234 29.72477454931854 50.49301849027872 C 29.478885202224795 50.63281096963404 29.332555569399098 50.89904960713635 29.34633813281745 51.181562525857096 C 29.3601206962358 51.464075444577844 29.531670989211896 51.71480611785458 29.790000000000003 51.830000000000005 C 32.42 53.28000000000001 33.56 55.42 33.56 56.190000000000005 C 33.56 56.6042135623731 33.89578643762691 56.940000000000005 34.31 56.940000000000005 C 34.724213562373095 56.940000000000005 35.06 56.6042135623731 35.06 56.190000000000005 C 35.06 54.64000000000001 33.36 52.09 30.51 50.52 z M 70.59 50.82 C 70.39240227745304 50.466326981511294 69.94964930147795 50.33350108871876 69.59 50.52 C 66.72 52.09 65 54.64 65 56.2 C 65 56.614213562373095 65.33578643762691 56.95 65.75 56.95 C 66.16421356237309 56.95 66.5 56.614213562373095 66.5 56.2 C 66.5 55.43 67.64 53.28 70.27 51.84 C 70.44885950035068 51.74835974125353 70.58345819587204 51.58877104500032 70.6436163598822 51.397016897217945 C 70.70377452389235 51.205262749435576 70.68445874205393 50.99738715832439 70.58999999999999 50.82 z" stroke-linecap="round" />
</g>
		<g transform="matrix(0.5 0 0 0.5 35.92 14.81)" id="oFc1KgJ9DAaj1cCcM3F6O"  >
<path style="stroke: none; stroke-width: 1; stroke-dasharray: none; stroke-linecap: butt; stroke-dashoffset: 0; stroke-linejoin: miter; stroke-miterlimit: 4; fill: rgb(0,0,0); fill-rule: nonzero; opacity: 1;" vector-effect="non-scaling-stroke"  transform=" translate(-149.66, -8.4)" d="M 7.74 13.02 L 6.58 10.12 L 2.16 10.12 L 1.01 13.02 L 0.27 13.02 L 3.96 3.78 L 4.79 3.78 L 8.48 13.02 L 7.74 13.02 Z M 2.42 9.48 L 6.33 9.48 L 4.72 5.45 L 4.38 4.47 L 4.37 4.47 L 4.03 5.42 L 2.42 9.48 Z M 20.52 8.5 L 24.32 8.5 L 24.32 13.02 L 23.76 13.02 L 23.73 11.41 L 23.73 11.41 Q 23.35 12.25 22.55 12.71 L 22.55 12.71 L 22.55 12.71 Q 21.74 13.16 20.55 13.16 L 20.55 13.16 L 20.55 13.16 Q 19.29 13.16 18.35 12.58 L 18.35 12.58 L 18.35 12.58 Q 17.4 12 16.89 10.92 L 16.89 10.92 L 16.89 10.92 Q 16.38 9.84 16.38 8.4 L 16.38 8.4 L 16.38 8.4 Q 16.38 6.96 16.91 5.88 L 16.91 5.88 L 16.91 5.88 Q 17.43 4.8 18.38 4.22 L 18.38 4.22 L 18.38 4.22 Q 19.33 3.64 20.59 3.64 L 20.59 3.64 L 20.59 3.64 Q 22.01 3.64 22.9 4.2 L 22.9 4.2 L 22.9 4.2 Q 23.8 4.76 24.25 5.91 L 24.25 5.91 L 23.6 6.24 L 23.6 6.24 Q 23.28 5.28 22.52 4.78 L 22.52 4.78 L 22.52 4.78 Q 21.76 4.28 20.59 4.28 L 20.59 4.28 L 20.59 4.28 Q 19.56 4.28 18.77 4.78 L 18.77 4.78 L 18.77 4.78 Q 17.99 5.28 17.56 6.21 L 17.56 6.21 L 17.56 6.21 Q 17.12 7.14 17.12 8.4 L 17.12 8.4 L 17.12 8.4 Q 17.12 10.32 18.04 11.42 L 18.04 11.42 L 18.04 11.42 Q 18.96 12.52 20.58 12.52 L 20.58 12.52 L 20.58 12.52 Q 21.59 12.52 22.29 12.12 L 22.29 12.12 L 22.29 12.12 Q 22.99 11.72 23.32 11.07 L 23.32 11.07 L 23.32 11.07 Q 23.66 10.42 23.66 9.67 L 23.66 9.67 L 23.66 9.16 L 20.52 9.16 L 20.52 8.5 Z M 34.5 12.38 L 40.33 12.38 L 40.33 13.02 L 33.8 13.02 L 33.8 3.78 L 40.11 3.78 L 40.11 4.42 L 34.5 4.42 L 34.5 7.99 L 38.93 7.99 L 38.93 8.65 L 34.5 8.65 L 34.5 12.38 Z M 56.46 3.78 L 56.46 13.02 L 55.59 13.02 L 50.69 5.77 L 50.01 4.54 L 49.99 4.54 L 50.04 5.7 L 50.04 13.02 L 49.36 13.02 L 49.36 3.78 L 50.25 3.78 L 55.13 11.02 L 55.83 12.26 L 55.8 11.1 L 55.8 3.78 L 56.46 3.78 Z M 73.68 10.68 L 73.68 10.68 Q 73.29 11.86 72.32 12.51 L 72.32 12.51 L 72.32 12.51 Q 71.34 13.16 69.99 13.16 L 69.99 13.16 L 69.99 13.16 Q 68.73 13.16 67.77 12.58 L 67.77 12.58 L 67.77 12.58 Q 66.82 12 66.3 10.92 L 66.3 10.92 L 66.3 10.92 Q 65.79 9.84 65.79 8.4 L 65.79 8.4 L 65.79 8.4 Q 65.79 6.96 66.3 5.88 L 66.3 5.88 L 66.3 5.88 Q 66.82 4.8 67.77 4.22 L 67.77 4.22 L 67.77 4.22 Q 68.73 3.64 69.97 3.64 L 69.97 3.64 L 69.97 3.64 Q 72.74 3.64 73.56 5.92 L 73.56 5.92 L 72.87 6.24 L 72.87 6.24 Q 72.55 5.26 71.84 4.77 L 71.84 4.77 L 71.84 4.77 Q 71.13 4.28 70.01 4.28 L 70.01 4.28 L 70.01 4.28 Q 68.98 4.28 68.19 4.78 L 68.19 4.78 L 68.19 4.78 Q 67.4 5.28 66.96 6.21 L 66.96 6.21 L 66.96 6.21 Q 66.53 7.14 66.53 8.4 L 66.53 8.4 L 66.53 8.4 Q 66.53 9.66 66.96 10.59 L 66.96 10.59 L 66.96 10.59 Q 67.38 11.52 68.16 12.02 L 68.16 12.02 L 68.16 12.02 Q 68.94 12.52 69.99 12.52 L 69.99 12.52 L 69.99 12.52 Q 71.11 12.52 71.89 11.97 L 71.89 11.97 L 71.89 11.97 Q 72.67 11.42 72.98 10.42 L 72.98 10.42 L 73.68 10.68 Z M 83.44 12.38 L 89.28 12.38 L 89.28 13.02 L 82.74 13.02 L 82.74 3.78 L 89.05 3.78 L 89.05 4.42 L 83.44 4.42 L 83.44 7.99 L 87.88 7.99 L 87.88 8.65 L 83.44 8.65 L 83.44 12.38 Z M 112.6 3.78 L 112.6 3.78 Q 114.81 3.78 116.01 4.95 L 116.01 4.95 L 116.01 4.95 Q 117.21 6.12 117.21 8.33 L 117.21 8.33 L 117.21 8.33 Q 117.21 10.6 116.01 11.81 L 116.01 11.81 L 116.01 11.81 Q 114.81 13.02 112.6 13.02 L 112.6 13.02 L 109.69 13.02 L 109.69 3.78 L 112.6 3.78 Z M 112.66 12.38 L 112.66 12.38 Q 114.51 12.38 115.49 11.33 L 115.49 11.33 L 115.49 11.33 Q 116.48 10.29 116.48 8.33 L 116.48 8.33 L 116.48 8.33 Q 116.48 6.45 115.49 5.44 L 115.49 5.44 L 115.49 5.44 Q 114.51 4.42 112.66 4.42 L 112.66 4.42 L 110.39 4.42 L 110.39 12.38 L 112.66 12.38 Z M 127.25 12.38 L 133.08 12.38 L 133.08 13.02 L 126.55 13.02 L 126.55 3.78 L 132.86 3.78 L 132.86 4.42 L 127.25 4.42 L 127.25 7.99 L 131.68 7.99 L 131.68 8.65 L 127.25 8.65 L 127.25 12.38 Z M 158.07 6.54 L 156.21 13.02 L 155.34 13.02 L 152.46 3.78 L 153.22 3.78 L 155.78 12.45 L 158.2 3.78 L 159.01 3.78 L 161.43 12.46 L 164.02 3.78 L 164.74 3.78 L 161.85 13.02 L 160.99 13.02 L 159.12 6.54 L 158.61 4.54 L 158.59 4.54 L 158.07 6.54 Z M 174.31 12.38 L 180.15 12.38 L 180.15 13.02 L 173.61 13.02 L 173.61 3.78 L 179.93 3.78 L 179.93 4.42 L 174.31 4.42 L 174.31 7.99 L 178.75 7.99 L 178.75 8.65 L 174.31 8.65 L 174.31 12.38 Z M 189.18 13.02 L 189.18 3.78 L 192.44 3.78 L 192.44 3.78 Q 193.96 3.78 194.71 4.41 L 194.71 4.41 L 194.71 4.41 Q 195.45 5.04 195.45 6.23 L 195.45 6.23 L 195.45 6.23 Q 195.45 7.04 195.01 7.6 L 195.01 7.6 L 195.01 7.6 Q 194.57 8.16 193.76 8.33 L 193.76 8.33 L 193.76 8.34 L 193.76 8.34 Q 194.66 8.48 195.18 9.07 L 195.18 9.07 L 195.18 9.07 Q 195.71 9.66 195.71 10.53 L 195.71 10.53 L 195.71 10.53 Q 195.71 11.72 194.86 12.37 L 194.86 12.37 L 194.86 12.37 Q 194.01 13.02 192.44 13.02 L 192.44 13.02 L 189.18 13.02 Z M 189.88 8.04 L 192.46 8.04 L 192.46 8.04 Q 194.71 8.04 194.71 6.23 L 194.71 6.23 L 194.71 6.23 Q 194.71 4.42 192.46 4.42 L 192.46 4.42 L 189.88 4.42 L 189.88 8.04 Z M 189.88 12.38 L 192.58 12.38 L 192.58 12.38 Q 193.76 12.38 194.36 11.9 L 194.36 11.9 L 194.36 11.9 Q 194.96 11.42 194.96 10.53 L 194.96 10.53 L 194.96 10.53 Q 194.96 9.62 194.36 9.15 L 194.36 9.15 L 194.36 9.15 Q 193.76 8.68 192.58 8.68 L 192.58 8.68 L 189.88 8.68 L 189.88 12.38 Z M 219.32 3.78 L 219.32 3.78 Q 221.54 3.78 222.73 4.95 L 222.73 4.95 L 222.73 4.95 Q 223.93 6.12 223.93 8.33 L 223.93 8.33 L 223.93 8.33 Q 223.93 10.6 222.73 11.81 L 222.73 11.81 L 222.73 11.81 Q 221.54 13.02 219.32 13.02 L 219.32 13.02 L 216.41 13.02 L 216.41 3.78 L 219.32 3.78 Z M 219.38 12.38 L 219.38 12.38 Q 221.23 12.38 222.22 11.33 L 222.22 11.33 L 222.22 11.33 Q 223.2 10.29 223.2 8.33 L 223.2 8.33 L 223.2 8.33 Q 223.2 6.45 222.22 5.44 L 222.22 5.44 L 222.22 5.44 Q 221.23 4.42 219.38 4.42 L 219.38 4.42 L 217.11 4.42 L 217.11 12.38 L 219.38 12.38 Z M 233.97 12.38 L 239.81 12.38 L 239.81 13.02 L 233.27 13.02 L 233.27 3.78 L 239.58 3.78 L 239.58 4.42 L 233.97 4.42 L 233.97 7.99 L 238.41 7.99 L 238.41 8.65 L 233.97 8.65 L 233.97 12.38 Z M 251.69 3.64 L 251.69 3.64 Q 254.3 3.64 255.18 5.68 L 255.18 5.68 L 254.58 6.17 L 254.58 6.17 Q 254.23 5.18 253.53 4.73 L 253.53 4.73 L 253.53 4.73 Q 252.84 4.28 251.71 4.28 L 251.71 4.28 L 251.71 4.28 Q 250.89 4.28 250.29 4.54 L 250.29 4.54 L 250.29 4.54 Q 249.69 4.79 249.38 5.22 L 249.38 5.22 L 249.38 5.22 Q 249.06 5.66 249.06 6.2 L 249.06 6.2 L 249.06 6.2 Q 249.06 6.73 249.33 7.08 L 249.33 7.08 L 249.33 7.08 Q 249.59 7.43 250.23 7.68 L 250.23 7.68 L 250.23 7.68 Q 250.87 7.92 251.99 8.12 L 251.99 8.12 L 251.99 8.12 Q 253.79 8.43 254.55 9.02 L 254.55 9.02 L 254.55 9.02 Q 255.3 9.6 255.3 10.64 L 255.3 10.64 L 255.3 10.64 Q 255.3 11.38 254.87 11.96 L 254.87 11.96 L 254.87 11.96 Q 254.44 12.53 253.65 12.84 L 253.65 12.84 L 253.65 12.84 Q 252.85 13.16 251.83 13.16 L 251.83 13.16 L 251.83 13.16 Q 250.38 13.16 249.38 12.58 L 249.38 12.58 L 249.38 12.58 Q 248.37 12 248.01 10.95 L 248.01 10.95 L 248.63 10.47 L 248.63 10.47 Q 248.91 11.47 249.75 11.99 L 249.75 11.99 L 249.75 11.99 Q 250.6 12.52 251.85 12.52 L 251.85 12.52 L 251.85 12.52 Q 253.05 12.52 253.81 12.03 L 253.81 12.03 L 253.81 12.03 Q 254.58 11.54 254.58 10.68 L 254.58 10.68 L 254.58 10.68 Q 254.58 9.94 253.95 9.51 L 253.95 9.51 L 253.95 9.51 Q 253.33 9.07 251.79 8.81 L 251.79 8.81 L 251.79 8.81 Q 250.49 8.58 249.73 8.26 L 249.73 8.26 L 249.73 8.26 Q 248.98 7.94 248.65 7.46 L 248.65 7.46 L 248.65 7.46 Q 248.32 6.99 248.32 6.27 L 248.32 6.27 L 248.32 6.27 Q 248.32 5.56 248.73 4.96 L 248.73 4.96 L 248.73 4.96 Q 249.14 4.35 249.91 4 L 249.91 4 L 249.91 4 Q 250.67 3.64 251.69 3.64 L 251.69 3.64 Z M 265.2 3.78 L 265.2 13.02 L 264.5 13.02 L 264.5 3.78 L 265.2 3.78 Z M 278.67 8.5 L 282.46 8.5 L 282.46 13.02 L 281.9 13.02 L 281.88 11.41 L 281.88 11.41 Q 281.5 12.25 280.69 12.71 L 280.69 12.71 L 280.69 12.71 Q 279.89 13.16 278.7 13.16 L 278.7 13.16 L 278.7 13.16 Q 277.44 13.16 276.49 12.58 L 276.49 12.58 L 276.49 12.58 Q 275.55 12 275.04 10.92 L 275.04 10.92 L 275.04 10.92 Q 274.53 9.84 274.53 8.4 L 274.53 8.4 L 274.53 8.4 Q 274.53 6.96 275.05 5.88 L 275.05 5.88 L 275.05 5.88 Q 275.58 4.8 276.53 4.22 L 276.53 4.22 L 276.53 4.22 Q 277.48 3.64 278.74 3.64 L 278.74 3.64 L 278.74 3.64 Q 280.15 3.64 281.05 4.2 L 281.05 4.2 L 281.05 4.2 Q 281.95 4.76 282.39 5.91 L 282.39 5.91 L 281.75 6.24 L 281.75 6.24 Q 281.43 5.28 280.67 4.78 L 280.67 4.78 L 280.67 4.78 Q 279.9 4.28 278.74 4.28 L 278.74 4.28 L 278.74 4.28 Q 277.7 4.28 276.92 4.78 L 276.92 4.78 L 276.92 4.78 Q 276.14 5.28 275.7 6.21 L 275.7 6.21 L 275.7 6.21 Q 275.27 7.14 275.27 8.4 L 275.27 8.4 L 275.27 8.4 Q 275.27 10.32 276.19 11.42 L 276.19 11.42 L 276.19 11.42 Q 277.1 12.52 278.73 12.52 L 278.73 12.52 L 278.73 12.52 Q 279.73 12.52 280.43 12.12 L 280.43 12.12 L 280.43 12.12 Q 281.13 11.72 281.47 11.07 L 281.47 11.07 L 281.47 11.07 Q 281.81 10.42 281.81 9.67 L 281.81 9.67 L 281.81 9.16 L 278.67 9.16 L 278.67 8.5 Z M 299.04 3.78 L 299.04 13.02 L 298.17 13.02 L 293.27 5.77 L 292.59 4.54 L 292.57 4.54 L 292.61 5.7 L 292.61 13.02 L 291.94 13.02 L 291.94 3.78 L 292.82 3.78 L 297.71 11.02 L 298.41 12.26 L 298.38 11.1 L 298.38 3.78 L 299.04 3.78 Z" stroke-linecap="round" />
</g>
</g>
</g>
</svg>